<?xml version="1.0" encoding="utf-8"?>
<!-- Generator: Adobe Illustrator 19.2.1, SVG Export Plug-In . SVG Version: 6.00 Build 0)  -->
<svg version="1.1" id="Layer_1" xmlns="http://www.w3.org/2000/svg" xmlns:xlink="http://www.w3.org/1999/xlink" x="0px" y="0px"
	 viewBox="0 0 120 120" style="enable-background:new 0 0 120 120;" xml:space="preserve">
<style type="text/css">
	.st0{fill:#868A8E;}
	.st1{fill:#FFFFFF;stroke:#FFFFFF;stroke-width:3;stroke-miterlimit:10;}
</style>
<title>icon-instagram</title>
<circle class="st0" cx="60" cy="60" r="60"/>
<circle class="st0" cx="61.9" cy="62.8" r="6"/>
<g>
	<path class="st1" d="M90.5,30.3H29.5c-1.6,0-2.8,1.4-2.8,3.2v53c0,1.8,1.3,3.2,2.8,3.2h60.9c1.6,0,2.8-1.4,3-3.2v-53
		C93.4,31.8,92.1,30.3,90.5,30.3z M84.4,36.7L59.9,61.3L35.5,36.7H84.4z M32.2,83.3V41.8l25.9,25.8c0.7,0.8,2.4,1.3,3.7,0.2l25.9-26
		v41.5L32.2,83.3L32.2,83.3z"/>
</g>
</svg>
